<?xml version="1.0" encoding="utf-8"?>
<!-- Generator: Adobe Illustrator 19.0.0, SVG Export Plug-In . SVG Version: 6.00 Build 0)  -->
<svg version="1.1" id="レイヤー_1" xmlns="http://www.w3.org/2000/svg" xmlns:xlink="http://www.w3.org/1999/xlink" x="0px"
	 y="0px" viewBox="0 0 246.3 142.1" style="enable-background:new 0 0 246.3 142.1;" xml:space="preserve">
<style type="text/css">
	.st0{fill:#ED4545;}
	.st1{fill:#FFFFFF;}
	.st2{fill:#275C87;}
</style>
<g id="XMLID_1_">
	<path id="XMLID_6_" class="st0" d="M223.1,12h-69.9C132.7,12,115,29,115,49.5v69.9c0,11.9,10.7,21.6,22.6,21.6h28.6
		c14,0,27.1-3.7,38.6-10.2c3.8,6.1,10.6,10.2,18.3,10.2l-0.4,0c11.9,0,21.3-9.7,21.3-21.6V33.9C244,22,235,12,223.1,12z"/>
	<path id="XMLID_2_" class="st0" d="M106.3,1.6c4.1,2,7,3.7,4.7,21.1c-6.1,46.6-4.3,71.2-40.4,63.6C33.7,78.6-1.1,72.4,2,48.8
		c2.7-21.3,9.9-29.9,19.3-28.4c34.1,5.6,65.6-3.8,69.6-8.9S100.9-1,106.3,1.6z"/>
	<circle id="XMLID_3_" class="st1" cx="66.1" cy="36.4" r="12.3"/>
	<circle id="XMLID_4_" class="st2" cx="66.1" cy="36.4" r="7.7"/>
	<circle id="XMLID_30_" class="st1" cx="180.3" cy="76.8" r="38"/>
	<circle id="XMLID_31_" class="st2" cx="180.3" cy="76.8" r="23.8"/>
	<circle id="XMLID_33_" class="st1" cx="224.6" cy="32.6" r="12.3"/>
	<circle id="XMLID_32_" class="st2" cx="224.6" cy="32.6" r="6"/>
</g>
</svg>
