<?xml version="1.0" encoding="utf-8"?>
<!-- Generator: Adobe Illustrator 19.0.0, SVG Export Plug-In . SVG Version: 6.00 Build 0)  -->
<svg version="1.1" id="レイヤー_1" xmlns="http://www.w3.org/2000/svg" xmlns:xlink="http://www.w3.org/1999/xlink" x="0px"
	 y="0px" viewBox="0 0 20 20" style="enable-background:new 0 0 20 20;" xml:space="preserve">
<style type="text/css">
	.st0{fill:none;stroke:#ED4545;stroke-width:1.0003;stroke-linecap:round;stroke-linejoin:round;stroke-miterlimit:10;}
</style>
<g id="XMLID_1_">
	<line id="XMLID_661_" class="st0" x1="19" y1="5.5" x2="1" y2="5.5"/>
	<line id="XMLID_660_" class="st0" x1="19" y1="10.2" x2="1" y2="10.2"/>
	<line id="XMLID_659_" class="st0" x1="19" y1="14.8" x2="1" y2="14.8"/>
	<polyline id="XMLID_657_" class="st0" points="12.5,13 12.5,12 7.5,12 7.5,13 	"/>
	<polyline id="XMLID_259_" class="st0" points="12.5,17.7 12.5,16.6 7.5,16.6 7.5,17.7 	"/>
	<polyline id="XMLID_258_" class="st0" points="12.5,8.4 12.5,7.3 7.5,7.3 7.5,8.4 	"/>
	<path id="XMLID_309_" class="st0" d="M18.6,19.5H1.4c-0.5,0-0.9-0.4-0.9-0.9V5.5h19v13.1C19.5,19.1,19.1,19.5,18.6,19.5z"/>
	<polygon id="XMLID_254_" class="st0" points="18,0.5 2,0.5 0.5,5.5 19.5,5.5 	"/>
</g>
</svg>
