<?xml version="1.0" encoding="utf-8"?>
<!-- Generator: Adobe Illustrator 19.0.0, SVG Export Plug-In . SVG Version: 6.00 Build 0)  -->
<svg version="1.1" id="レイヤー_1" xmlns="http://www.w3.org/2000/svg" xmlns:xlink="http://www.w3.org/1999/xlink" x="0px"
	 y="0px" viewBox="0 0 20 20" style="enable-background:new 0 0 20 20;" xml:space="preserve">
<style type="text/css">
	.st0{fill:none;stroke:#ED4545;stroke-linecap:round;stroke-linejoin:round;stroke-miterlimit:10;}
</style>
<g id="XMLID_1_">
	<path id="XMLID_774_" class="st0" d="M10.2,18.1l0.5-4.9c0-0.2,0.2-0.5,0.4-0.6l8-5c0.2-0.2,0.4-0.4,0.4-0.7
		c-0.3-2.8-2.9-5.4-7.2-5.8c-0.4,0-0.8,0.2-0.8,0.6c-0.4,1.7-1.3,4-1.3,4h0H9.8c0,0-1-2.3-1.3-4C8.4,1.3,8.1,1.1,7.7,1.1
		c-4.3,0.4-6.9,3-7.2,5.8c0,0.3,0.1,0.6,0.4,0.7l8,5c0.2,0.1,0.3,0.3,0.4,0.6l0.5,4.9c0,0,0.1,0.8,0.2,0.8
		C10.1,18.9,10.2,18.7,10.2,18.1L10.2,18.1z"/>
</g>
</svg>
