<?xml version="1.0" encoding="iso-8859-1"?>
<!-- Generator: Adobe Illustrator 19.0.0, SVG Export Plug-In . SVG Version: 6.00 Build 0)  -->
<svg version="1.1" id="&#x30EC;&#x30A4;&#x30E4;&#x30FC;_1"
	 xmlns="http://www.w3.org/2000/svg" xmlns:xlink="http://www.w3.org/1999/xlink" x="0px" y="0px" viewBox="0 0 20 20"
	 style="enable-background:new 0 0 20 20;" xml:space="preserve">
<path id="XMLID_312_" style="fill:none;stroke:#ED4545;stroke-width:0.96;stroke-miterlimit:10;" d="M9.659,12.848H6.625v-0.136
	c0-0.772-0.632-1.404-1.404-1.404H2.653c-0.772,0-1.404,0.632-1.404,1.404v5.404c0,0.772,0.632,1.404,1.404,1.404h7.006
	c0.772,0,1.404-0.632,1.404-1.404v-3.865C11.062,13.48,10.431,12.848,9.659,12.848z"/>
<path id="XMLID_337_" style="fill:none;stroke:#ED4545;stroke-width:0.96;stroke-miterlimit:10;" d="M17.96,7.343h-2.127V7.248
	c0-0.541-0.443-0.984-0.984-0.984h-1.801c-0.541,0-0.984,0.443-0.984,0.984v3.79c0,0.541,0.443,0.984,0.984,0.984h4.913
	c0.541,0,0.984-0.443,0.984-0.984v-2.71C18.944,7.786,18.501,7.343,17.96,7.343z"/>
<path id="XMLID_336_" style="fill:none;stroke:#ED4545;stroke-width:0.96;stroke-miterlimit:10;" d="M9.806,1.412H7.97V1.33
	c0-0.467-0.382-0.85-0.85-0.85H5.565c-0.467,0-0.85,0.382-0.85,0.85v3.271c0,0.467,0.382,0.85,0.85,0.85h4.241
	c0.467,0,0.85-0.382,0.85-0.85V2.262C10.656,1.794,10.273,1.412,9.806,1.412z"/>
<line id="XMLID_225_" style="fill:none;stroke:#ED4545;stroke-width:1.0003;stroke-linecap:round;stroke-linejoin:round;stroke-miterlimit:10;" x1="12.263" y1="11.768" x2="10.784" y2="13.248"/>
<line id="XMLID_170_" style="fill:none;stroke:#ED4545;stroke-width:1.0003;stroke-linecap:round;stroke-linejoin:round;stroke-miterlimit:10;" x1="11.795" y1="6.697" x2="10.315" y2="5.218"/>
</svg>
