<?xml version="1.0" encoding="utf-8"?>
<!-- Generator: Adobe Illustrator 19.0.0, SVG Export Plug-In . SVG Version: 6.00 Build 0)  -->
<svg version="1.1" id="レイヤー_1" xmlns="http://www.w3.org/2000/svg" xmlns:xlink="http://www.w3.org/1999/xlink" x="0px"
	 y="0px" viewBox="0 0 650 160" style="enable-background:new 0 0 650 160;" xml:space="preserve">
<style type="text/css">
	.st0{fill:#ED4545;}
	.st1{fill:#FFFFFF;}
	.st2{fill:#275C87;}
</style>
<g id="XMLID_49_">
	<path id="XMLID_6_" class="st0" d="M224.9,12h-71c-20.8,0-38,16.5-38,37.3v70.9c0,12.1,10.1,21.7,22.2,21.7h29
		c14.2,0,27.5-3.7,39.1-10.2c3.9,6.2,10.8,10.4,18.6,10.4l0.1,0c12.1,0,22-9.8,22-21.9V33.5C247,21.4,237,12,224.9,12z"/>
	<path id="XMLID_2_" class="st0" d="M106.4,0.7c4.1,2,7.1,3.7,4.8,21.4c-6.2,47.3-4.4,72.3-41,64.6C32.7,78.9-2.6,72.6,0.5,48.6
		C3.3,27,10.6,18.2,20.1,19.8c34.6,5.7,66.5-3.9,70.6-9.1S100.9-1.9,106.4,0.7z"/>
	<circle id="XMLID_3_" class="st1" cx="65.6" cy="36.1" r="12.5"/>
	<circle id="XMLID_4_" class="st2" cx="65.6" cy="36.1" r="7.8"/>
	<g id="XMLID_51_">
		<path id="XMLID_52_" class="st0" d="M268.1,61.2c-1.7-1.5-2.5-3.5-2.5-6c0-2.5,0.8-4.5,2.5-5.9c1.7-1.5,3.9-2.2,6.7-2.2
			c2.7,0,4.9,0.7,6.6,2.2c1.7,1.5,2.5,3.5,2.5,5.9c0,2.5-0.8,4.5-2.5,6c-1.7,1.5-3.9,2.3-6.7,2.3C272,63.5,269.7,62.8,268.1,61.2z
			 M269.3,135.2c-1.4-1.3-2.2-3.1-2.2-5.5V81.9c0-2.4,0.7-4.2,2.2-5.5c1.4-1.2,3.3-1.9,5.5-1.9c2.2,0,4.1,0.6,5.6,1.9
			c1.5,1.2,2.2,3.1,2.2,5.5v47.8c0,2.4-0.7,4.2-2.2,5.5c-1.5,1.3-3.3,1.9-5.6,1.9C272.5,137.1,270.7,136.5,269.3,135.2z"/>
		<path id="XMLID_55_" class="st0" d="M302.1,135c-1.4-1.4-2.2-3.4-2.2-5.9V56.6c0-2.4,0.7-4.3,2-5.6c1.4-1.3,3.2-2,5.6-2h30.5
			c9.3,0,16.6,2.3,21.8,7c5.2,4.7,7.8,11.2,7.8,19.6c0,8.4-2.6,15-7.8,19.7c-5.2,4.7-12.5,7.1-21.8,7.1h-22.2v26.6
			c0,2.5-0.7,4.4-2.2,5.9c-1.4,1.4-3.4,2.2-5.9,2.2C305.5,137.1,303.5,136.4,302.1,135z M336.1,90.2c11,0,16.5-4.8,16.5-14.4
			c0-9.6-5.5-14.4-16.5-14.4h-20.2v28.8H336.1z"/>
		<path id="XMLID_58_" class="st0" d="M437.1,99.2v30.5c0,2.3-0.7,4.1-2,5.5c-1.4,1.3-3.2,2-5.6,2c-2.4,0-4.3-0.7-5.7-2
			c-1.4-1.3-2.1-3.1-2.1-5.5V99.2c0-4.4-0.9-7.6-2.7-9.6c-1.8-2-4.6-3-8.4-3c-4.5,0-8,1.4-10.7,4.2c-2.7,2.8-4,6.6-4,11.3v27.6
			c0,2.3-0.7,4.1-2.1,5.5c-1.4,1.3-3.3,2-5.7,2c-2.4,0-4.3-0.7-5.6-2c-1.4-1.3-2-3.1-2-5.5V55.6c0-2.1,0.7-3.9,2.2-5.2
			c1.4-1.3,3.3-2,5.6-2c2.3,0,4.2,0.6,5.6,1.9c1.4,1.2,2.1,2.9,2.1,5.1v28.9c2.1-3.2,4.8-5.7,8.2-7.4c3.4-1.7,7.3-2.5,11.7-2.5
			C430,74.3,437.1,82.6,437.1,99.2z"/>
		<path id="XMLID_60_" class="st0" d="M575.1,131.2c0,2-0.8,3.5-2.4,4.5c-1.6,1-3.9,1.5-6.9,1.3l-3.3-0.2
			c-13.9-1-20.8-8.4-20.8-22.3v-27h-6.2c-2.2,0-3.9-0.5-5.1-1.5c-1.2-1-1.8-2.4-1.8-4.3c0-1.9,0.6-3.3,1.8-4.3s2.9-1.5,5.1-1.5h6.2
			V64.4c0-2.2,0.7-4,2.1-5.3c1.4-1.3,3.3-2,5.7-2c2.3,0,4.2,0.7,5.6,2c1.4,1.3,2.1,3.1,2.1,5.3v11.4h10.5c2.2,0,3.9,0.5,5.1,1.5
			c1.2,1,1.8,2.4,1.8,4.3c0,1.9-0.6,3.3-1.8,4.3c-1.2,1-2.9,1.5-5.1,1.5h-10.5v28.1c0,6.1,2.8,9.4,8.4,9.8l3.3,0.2
			C573,125.9,575.1,127.7,575.1,131.2z"/>
	</g>
	<g id="XMLID_46_">
		<g id="XMLID_74_">
			<path id="XMLID_75_" class="st2" d="M485.5,73.4c-17.4,0-31.6,14.1-31.6,31.5c0,22.7,14.5,26.7,23.8,41.7
				c2.4,3.8,4.5,8.6,5.8,12.2c0.7,1.7,3.1,1.7,3.7,0c1.4-3.6,3.4-8.3,5.8-12.2c9.1-14.5,23-18.5,23.8-39.8
				C517.6,88.8,503.5,73.4,485.5,73.4z M485.4,117.6c-6.5,0-11.7-5.2-11.7-11.7c0-6.5,5.2-11.7,11.7-11.7c6.5,0,11.7,5.2,11.7,11.7
				C497.2,112.4,491.9,117.6,485.4,117.6z"/>
		</g>
	</g>
	<g id="XMLID_41_">
		<g id="XMLID_72_">
			<path id="XMLID_73_" class="st2" d="M618.2,73.4c-17.4,0-31.6,14.1-31.6,31.5c0,22.7,14.5,26.7,23.8,41.7
				c2.4,3.8,4.5,8.6,5.8,12.2c0.7,1.7,3.1,1.7,3.7,0c1.4-3.6,3.4-8.3,5.8-12.2c9.1-14.5,23-18.5,23.8-39.8
				C650.3,88.8,636.2,73.4,618.2,73.4z M618.2,117.6c-6.5,0-11.7-5.2-11.7-11.7c0-6.5,5.2-11.7,11.7-11.7c6.5,0,11.7,5.2,11.7,11.7
				C629.9,112.4,624.6,117.6,618.2,117.6z"/>
		</g>
	</g>
	<circle id="XMLID_30_" class="st1" cx="181.5" cy="77.1" r="38.6"/>
	<circle id="XMLID_31_" class="st2" cx="181.5" cy="77.1" r="24.1"/>
	<circle id="XMLID_33_" class="st1" cx="226.4" cy="32.2" r="12.5"/>
	<circle id="XMLID_32_" class="st2" cx="226.4" cy="32.2" r="6.1"/>
</g>
</svg>
