<?xml version="1.0" encoding="iso-8859-1"?>
<!-- Generator: Adobe Illustrator 19.0.0, SVG Export Plug-In . SVG Version: 6.00 Build 0)  -->
<svg version="1.1" id="&#x30EC;&#x30A4;&#x30E4;&#x30FC;_1"
	 xmlns="http://www.w3.org/2000/svg" xmlns:xlink="http://www.w3.org/1999/xlink" x="0px" y="0px" viewBox="0 0 20 20"
	 style="enable-background:new 0 0 20 20;" xml:space="preserve">
<g id="XMLID_1_">
	<g id="XMLID_299_">
		<g id="XMLID_23_">
			
				<path id="XMLID_24_" style="fill:none;stroke:#ED4545;stroke-width:1.0003;stroke-linecap:round;stroke-linejoin:round;stroke-miterlimit:10;" d="
				M10.015,0.5C6.2,0.493,3.105,3.592,3.105,7.417c0,4.97,3.171,5.859,5.212,9.137c0.525,0.843,0.975,1.886,1.277,2.667
				c0.144,0.372,0.669,0.372,0.813,0c0.302-0.781,0.753-1.825,1.277-2.667c1.985-3.187,5.036-4.058,5.205-8.729
				C17.032,3.881,13.949,0.507,10.015,0.5z M10,10.197c-1.414,0-2.56-1.146-2.56-2.56c0-1.414,1.146-2.56,2.56-2.56
				c1.414,0,2.56,1.146,2.56,2.56C12.56,9.051,11.414,10.197,10,10.197z"/>
		</g>
	</g>
</g>
</svg>
