<?xml version="1.0" encoding="iso-8859-1"?>
<!-- Generator: Adobe Illustrator 19.0.0, SVG Export Plug-In . SVG Version: 6.00 Build 0)  -->
<svg version="1.1" id="&#x30EC;&#x30A4;&#x30E4;&#x30FC;_1"
	 xmlns="http://www.w3.org/2000/svg" xmlns:xlink="http://www.w3.org/1999/xlink" x="0px" y="0px" viewBox="0 0 20 20"
	 style="enable-background:new 0 0 20 20;" xml:space="preserve">
<g id="XMLID_114_">
	<g id="XMLID_208_">
		
			<polygon id="XMLID_211_" style="fill:none;stroke:#ED4545;stroke-width:1.0003;stroke-linecap:round;stroke-linejoin:round;stroke-miterlimit:10;" points="
			2.854,13.585 15.157,13.585 11.036,6.864 8.52,11.307 5.693,8.81 		"/>
	</g>
	
		<circle id="XMLID_212_" style="fill:none;stroke:#ED4545;stroke-width:1.0003;stroke-linecap:round;stroke-linejoin:round;stroke-miterlimit:10;" cx="3.932" cy="5.55" r="1.315"/>
	
		<path id="XMLID_137_" style="fill:none;stroke:#ED4545;stroke-width:1.0003;stroke-linecap:round;stroke-linejoin:round;stroke-miterlimit:10;" d="
		M2.09,2h13.831c0.878,0,1.59,0.712,1.59,1.59V14.41c0,0.878-0.712,1.59-1.59,1.59H2.09c-0.878,0-1.59-0.712-1.59-1.59V3.59
		C0.5,2.712,1.212,2,2.09,2z"/>
	<g id="XMLID_391_">
		<g id="XMLID_12_">
			
				<path id="XMLID_13_" style="fill:none;stroke:#ED4545;stroke-width:1.0003;stroke-linecap:round;stroke-linejoin:round;stroke-miterlimit:10;" d="
				M17.91,4.237h-0.4V14.41c0,0.878-0.712,1.59-1.589,1.59H2.489v0.647c0,0.878,0.712,1.589,1.589,1.589H17.91
				c0.878,0,1.589-0.712,1.589-1.589V5.826C19.5,4.948,18.788,4.237,17.91,4.237z"/>
		</g>
	</g>
</g>
</svg>
