<?xml version="1.0" encoding="iso-8859-1"?>
<!-- Generator: Adobe Illustrator 19.0.0, SVG Export Plug-In . SVG Version: 6.00 Build 0)  -->
<svg version="1.1" id="&#x30EC;&#x30A4;&#x30E4;&#x30FC;_1"
	 xmlns="http://www.w3.org/2000/svg" xmlns:xlink="http://www.w3.org/1999/xlink" x="0px" y="0px" viewBox="0 0 20 20"
	 style="enable-background:new 0 0 20 20;" xml:space="preserve">
<g id="XMLID_1_">
	<g id="XMLID_824_">
		
			<circle id="XMLID_492_" style="fill:none;stroke:#ED4545;stroke-width:1.0003;stroke-linecap:round;stroke-linejoin:round;stroke-miterlimit:10;" cx="12.416" cy="12.419" r="3.695"/>
		
			<path id="XMLID_823_" style="fill:none;stroke:#ED4545;stroke-width:1.0003;stroke-linecap:round;stroke-linejoin:round;stroke-miterlimit:10;" d="
			M19.13,19.131L19.13,19.131c-0.492,0.492-1.29,0.492-1.782,0l-1.78-1.779c-0.493-0.492-0.493-1.291,0-1.783l0,0
			c0.492-0.492,1.29-0.492,1.782,0l1.78,1.779C19.623,17.84,19.623,18.639,19.13,19.131z"/>
	</g>
	
		<polygon id="XMLID_491_" style="fill:none;stroke:#ED4545;stroke-width:1.0003;stroke-linecap:round;stroke-linejoin:round;stroke-miterlimit:10;" points="
		6.5,16.084 0.5,14.083 0.5,0.5 6.5,2.5 	"/>
	
		<polyline id="XMLID_490_" style="fill:none;stroke:#ED4545;stroke-width:1.0003;stroke-linecap:round;stroke-linejoin:round;stroke-miterlimit:10;" points="
		7.952,15.653 6.5,16.084 6.5,2.5 12.917,0.5 	"/>
	
		<polyline id="XMLID_569_" style="fill:none;stroke:#ED4545;stroke-width:1.0003;stroke-linecap:round;stroke-linejoin:round;stroke-miterlimit:10;" points="
		13.167,0.5 19.5,2.5 19.5,16 	"/>
	
		<line id="XMLID_488_" style="fill:none;stroke:#ED4545;stroke-width:1.0003;stroke-linecap:round;stroke-linejoin:round;stroke-miterlimit:10;" x1="13.167" y1="1" x2="13.167" y2="7"/>
</g>
</svg>
