<?xml version="1.0" encoding="iso-8859-1"?>
<!-- Generator: Adobe Illustrator 19.0.0, SVG Export Plug-In . SVG Version: 6.00 Build 0)  -->
<svg version="1.1" id="&#x30EC;&#x30A4;&#x30E4;&#x30FC;_1"
	 xmlns="http://www.w3.org/2000/svg" xmlns:xlink="http://www.w3.org/1999/xlink" x="0px" y="0px" viewBox="0 0 20 20"
	 style="enable-background:new 0 0 20 20;" xml:space="preserve">
<g id="XMLID_1_">
	<path id="XMLID_361_" style="fill:none;stroke:#ED4545;stroke-linecap:round;stroke-linejoin:round;stroke-miterlimit:10;" d="
		M16.884,19.476H3.116c-1.445,0-2.616-1.171-2.616-2.616V3.14c0-1.445,1.171-2.616,2.616-2.616h13.768
		c1.445,0,2.616,1.171,2.616,2.616v13.72C19.5,18.305,18.329,19.476,16.884,19.476z"/>
	
		<circle id="XMLID_362_" style="fill:none;stroke:#ED4545;stroke-linecap:round;stroke-linejoin:round;stroke-miterlimit:10;" cx="14.055" cy="6.469" r="2.723"/>
	
		<polygon id="XMLID_155_" style="fill:none;stroke:#ED4545;stroke-linecap:round;stroke-linejoin:round;stroke-miterlimit:10;" points="
		12.598,16.739 11.109,14.16 12.598,11.582 15.575,11.582 17.064,14.16 15.575,16.739 	"/>
	
		<polygon id="XMLID_363_" style="fill:none;stroke:#ED4545;stroke-linecap:round;stroke-linejoin:round;stroke-miterlimit:10;" points="
		4.102,9.071 2.936,5.48 5.99,3.261 9.045,5.48 7.879,9.071 	"/>
	
		<polygon id="XMLID_364_" style="fill:none;stroke:#ED4545;stroke-linecap:round;stroke-linejoin:round;stroke-miterlimit:10;" points="
		8.744,11.776 5.99,16.544 3.237,11.776 	"/>
</g>
</svg>
