<?xml version="1.0" encoding="utf-8"?>
<!-- Generator: Adobe Illustrator 19.0.0, SVG Export Plug-In . SVG Version: 6.00 Build 0)  -->
<svg version="1.1" id="レイヤー_1" xmlns="http://www.w3.org/2000/svg" xmlns:xlink="http://www.w3.org/1999/xlink" x="0px"
	 y="0px" viewBox="0 0 20 20" style="enable-background:new 0 0 20 20;" xml:space="preserve">
<style type="text/css">
	.st0{fill:none;stroke:#ED4545;stroke-width:1.0003;stroke-linecap:round;stroke-linejoin:round;stroke-miterlimit:10;}
</style>
<g id="XMLID_236_">
	<path id="XMLID_265_" class="st0" d="M10.6,13.2c-2.3,0.4-4.3-1.5-3.8-3.8C7,8.1,8.1,7,9.4,6.8c2.3-0.4,4.3,1.5,3.8,3.8
		C13,11.9,11.9,13,10.6,13.2z"/>
	<g id="XMLID_237_">
		<g id="XMLID_19_">
			<path id="XMLID_20_" class="st0" d="M19.5,12.3V7.7h-3.4c-0.2-0.6-0.5-1.1-0.9-1.6l1.9-3.2l-4.3-2.4L11,3.6c-0.3,0-0.6-0.1-1-0.1
				s-0.6,0-1,0.1L7.2,0.5L2.9,2.9l1.9,3.2c-0.4,0.5-0.7,1-0.9,1.6H0.5v4.6h3.4c0.2,0.6,0.5,1.1,0.9,1.6l-1.9,3.2l4.3,2.4L9,16.4
				c0.3,0,0.6,0.1,1,0.1s0.6,0,1-0.1l1.8,3.1l4.3-2.4l-1.9-3.2c0.4-0.5,0.7-1,0.9-1.6H19.5z"/>
		</g>
	</g>
</g>
</svg>
