<?xml version="1.0" encoding="iso-8859-1"?>
<!-- Generator: Adobe Illustrator 19.0.0, SVG Export Plug-In . SVG Version: 6.00 Build 0)  -->
<svg version="1.1" id="&#x30EC;&#x30A4;&#x30E4;&#x30FC;_1"
	 xmlns="http://www.w3.org/2000/svg" xmlns:xlink="http://www.w3.org/1999/xlink" x="0px" y="0px" viewBox="0 0 20 20"
	 style="enable-background:new 0 0 20 20;" xml:space="preserve">
<g id="XMLID_101_">
	
		<path id="XMLID_389_" style="fill:none;stroke:#ED4545;stroke-width:1.0003;stroke-linecap:round;stroke-linejoin:round;stroke-miterlimit:10;" d="
		M9.332,7.972C8.529,6.695,7.282,6.349,7.282,4.414C7.282,1.786,8.915,1,8.915,1S9.626,1.116,10,1.721
		C10.374,1.116,11.085,1,11.085,1s1.633,0.786,1.633,3.414c0,1.935-1.247,2.281-2.051,3.558c-0.206,0.328-0.662,1.342-0.662,1.342
		S9.539,8.3,9.332,7.972z"/>
	
		<path id="XMLID_104_" style="fill:none;stroke:#ED4545;stroke-width:1.0003;stroke-linecap:round;stroke-linejoin:round;stroke-miterlimit:10;" d="
		M7.292,10.413c-1.468,0.366-2.184,1.44-4.034,0.841C0.747,10.442,0.5,8.653,0.5,8.653s0.331-0.637,1.024-0.804
		c-0.463-0.541-0.354-1.25-0.354-1.25s1.256-1.303,3.767-0.491c1.849,0.598,1.795,1.886,2.766,3.04
		c0.25,0.297,1.078,1.041,1.078,1.041S7.669,10.319,7.292,10.413z"/>
	
		<path id="XMLID_106_" style="fill:none;stroke:#ED4545;stroke-width:1.0003;stroke-linecap:round;stroke-linejoin:round;stroke-miterlimit:10;" d="
		M8.994,13.098c-0.104,1.503,0.701,2.512-0.442,4.078c-1.552,2.126-3.338,1.807-3.338,1.807s-0.507-0.51-0.452-1.218
		c-0.66,0.271-1.304-0.051-1.304-0.051s-0.857-1.591,0.695-3.718c1.143-1.566,2.357-1.116,3.76-1.679
		c0.361-0.145,1.328-0.698,1.328-0.698S9.021,12.712,8.994,13.098z"/>
	
		<path id="XMLID_108_" style="fill:none;stroke:#ED4545;stroke-width:1.0003;stroke-linecap:round;stroke-linejoin:round;stroke-miterlimit:10;" d="
		M12.086,12.317c1.404,0.563,2.617,0.113,3.76,1.679c1.552,2.126,0.695,3.718,0.695,3.718s-0.644,0.322-1.304,0.051
		c0.055,0.708-0.452,1.218-0.452,1.218s-1.785,0.319-3.338-1.807c-1.143-1.566-0.338-2.575-0.442-4.078
		c-0.027-0.386-0.257-1.473-0.257-1.473S11.726,12.173,12.086,12.317z"/>
	
		<path id="XMLID_110_" style="fill:none;stroke:#ED4545;stroke-width:1.0003;stroke-linecap:round;stroke-linejoin:round;stroke-miterlimit:10;" d="
		M12.295,9.149c0.972-1.155,0.917-2.442,2.766-3.04c2.512-0.812,3.767,0.491,3.767,0.491s0.109,0.709-0.354,1.25
		C19.169,8.016,19.5,8.653,19.5,8.653s-0.246,1.789-2.758,2.601c-1.849,0.598-2.566-0.476-4.034-0.841
		c-0.377-0.094-1.487-0.212-1.487-0.212S12.046,9.446,12.295,9.149z"/>
</g>
</svg>
