<?xml version="1.0" encoding="iso-8859-1"?>
<!-- Generator: Adobe Illustrator 19.0.0, SVG Export Plug-In . SVG Version: 6.00 Build 0)  -->
<svg version="1.1" id="&#x30EC;&#x30A4;&#x30E4;&#x30FC;_1"
	 xmlns="http://www.w3.org/2000/svg" xmlns:xlink="http://www.w3.org/1999/xlink" x="0px" y="0px" viewBox="0 0 20 20"
	 style="enable-background:new 0 0 20 20;" xml:space="preserve">
<g id="XMLID_1_">
	
		<path id="XMLID_444_" style="fill:none;stroke:#ED4545;stroke-width:1.0003;stroke-linecap:round;stroke-linejoin:round;stroke-miterlimit:10;" d="
		M14,3.5h2.971c0.6,0,1.112,0.434,1.21,1.026l1.302,7.868c0.011,0.066,0.016,0.133,0.016,0.2v5.679c0,0.677-0.549,1.226-1.226,1.226
		H1.727c-0.677,0-1.226-0.549-1.226-1.226v-5.679c0-0.067,0.006-0.134,0.016-0.2l1.302-7.868C1.917,3.934,2.429,3.5,3.029,3.5H6"/>
	
		<polyline id="XMLID_154_" style="fill:none;stroke:#ED4545;stroke-width:1.0003;stroke-linecap:round;stroke-linejoin:round;stroke-miterlimit:10;" points="
		19.006,13.5 14.065,13.5 13.386,15.5 6.596,15.5 5.917,13.5 0.994,13.5 	"/>
	<g id="XMLID_441_">
		<g id="XMLID_12_">
			
				<polygon id="XMLID_13_" style="fill:none;stroke:#ED4545;stroke-width:1.0003;stroke-linecap:round;stroke-linejoin:round;stroke-miterlimit:10;" points="
				12.055,6.628 12.055,0.5 7.945,0.5 7.945,6.628 5.343,6.628 10.167,11.791 14.992,6.628 			"/>
		</g>
	</g>
</g>
</svg>
