<?xml version="1.0" encoding="iso-8859-1"?>
<!-- Generator: Adobe Illustrator 19.0.0, SVG Export Plug-In . SVG Version: 6.00 Build 0)  -->
<svg version="1.1" id="&#x30EC;&#x30A4;&#x30E4;&#x30FC;_1"
	 xmlns="http://www.w3.org/2000/svg" xmlns:xlink="http://www.w3.org/1999/xlink" x="0px" y="0px" viewBox="0 0 20 20"
	 style="enable-background:new 0 0 20 20;" xml:space="preserve">
<g id="XMLID_136_">
	
		<path id="XMLID_186_" style="fill:none;stroke:#ED4545;stroke-width:1.0003;stroke-linecap:round;stroke-linejoin:round;stroke-miterlimit:10;" d="
		M4.284,12.279c-2.236-1.2-3.677-3.088-3.677-5.212C0.607,3.44,4.812,0.5,10,0.5s9.393,2.94,9.393,6.567
		c0,2.124-1.442,4.012-3.678,5.212"/>
	<g id="XMLID_182_">
		<g id="XMLID_12_">
			
				<path id="XMLID_13_" style="fill:none;stroke:#ED4545;stroke-width:1.0003;stroke-linecap:round;stroke-linejoin:round;stroke-miterlimit:10;" d="
				M15.714,12.312C15.024,10.556,12.73,8.75,10,8.75s-5.024,1.807-5.714,3.562c1.349,0.725,2.993,1.182,4.778,1.308
				c-0.283,1.959-0.461,4.145-0.461,4.539C8.603,18.9,9.228,19.5,10,19.5s1.397-0.6,1.397-1.341c0-0.395-0.179-2.58-0.461-4.539
				C12.721,13.494,14.365,13.037,15.714,12.312z"/>
		</g>
	</g>
</g>
</svg>
